<svg xmlns="http://www.w3.org/2000/svg" xmlns:xlink="http://www.w3.org/1999/xlink" width="500" zoomAndPan="magnify" viewBox="0 0 375 374.999991" height="500" preserveAspectRatio="xMidYMid meet" version="1.0"><defs><clipPath id="f567155203"><path d="M 137 165 L 286.890625 165 L 286.890625 279.972656 L 137 279.972656 Z M 137 165 " clip-rule="nonzero"/></clipPath><clipPath id="0f68ed6c42"><path d="M 105 182 L 166 182 L 166 279.972656 L 105 279.972656 Z M 105 182 " clip-rule="nonzero"/></clipPath><clipPath id="d9ecb2117e"><path d="M 88.140625 168 L 144 168 L 144 180 L 88.140625 180 Z M 88.140625 168 " clip-rule="nonzero"/></clipPath><clipPath id="d7ec932944"><path d="M 61.804688 74.351562 L 313.054688 74.351562 L 313.054688 325.601562 L 61.804688 325.601562 Z M 61.804688 74.351562 " clip-rule="nonzero"/></clipPath></defs><rect x="-37.5" width="450" fill="#ffffff" y="-37.499999" height="449.999989" fill-opacity="1"/><rect x="-37.5" width="450" fill="#a6a6a6" y="-37.499999" height="449.999989" fill-opacity="1"/><g clip-path="url(#f567155203)"><path fill="#000000" d="M 255.539062 182.175781 L 257.933594 179.785156 L 254.570312 179.785156 L 256.914062 175.734375 L 253.667969 176.601562 L 254.878906 172.082031 L 251.96875 173.761719 L 251.96875 169.082031 L 249.589844 171.457031 L 248.375 166.9375 L 246.695312 169.84375 L 244.351562 165.792969 L 243.480469 169.035156 L 240.164062 165.726562 L 240.164062 169.082031 L 236.105469 166.742188 L 236.976562 169.984375 L 232.449219 168.773438 L 234.128906 171.683594 L 229.441406 171.683594 L 231.820312 174.054688 L 227.292969 175.265625 L 230.207031 176.945312 L 226.144531 179.285156 L 229.394531 180.15625 L 227.367188 182.175781 L 171.167969 182.175781 C 170.988281 182.84375 170.738281 183.503906 170.390625 184.136719 C 168.824219 187.003906 165.820312 188.78125 162.546875 188.78125 C 161.0625 188.78125 159.585938 188.40625 158.277344 187.691406 L 148.148438 182.179688 L 146.65625 182.179688 L 146.65625 188.042969 L 138.472656 183.253906 C 138.070312 184.21875 137.683594 185.1875 137.328125 186.15625 L 163.40625 209.351562 C 167.28125 212.796875 168.691406 218.1875 167 223.085938 L 150.53125 270.757812 C 151.179688 275.128906 154.480469 278.835938 159.070312 279.773438 C 159.804688 279.921875 160.53125 279.992188 161.25 279.992188 C 166.289062 279.992188 170.808594 276.460938 171.855469 271.339844 L 182.832031 217.695312 C 183.761719 213.160156 181.695312 208.539062 177.695312 206.199219 L 153.394531 191.984375 L 207.320312 191.984375 L 207.320312 278.980469 L 276.695312 278.980469 L 276.695312 191.984375 L 286.933594 191.984375 L 286.933594 182.175781 Z M 231.335938 181.625 C 231.335938 175.742188 236.113281 170.972656 242.007812 170.972656 C 247.902344 170.972656 252.679688 175.742188 252.679688 181.625 C 252.679688 181.8125 252.660156 181.992188 252.652344 182.179688 L 250.863281 182.179688 C 250.875 181.996094 250.890625 181.8125 250.890625 181.625 C 250.890625 176.726562 246.914062 172.757812 242.007812 172.757812 C 237.101562 172.757812 233.125 176.726562 233.125 181.625 C 233.125 181.8125 233.140625 181.996094 233.152344 182.179688 L 231.363281 182.179688 C 231.355469 181.992188 231.335938 181.8125 231.335938 181.625 Z M 237.78125 181.625 C 237.78125 179.296875 239.675781 177.40625 242.007812 177.40625 C 244.339844 177.40625 246.234375 179.296875 246.234375 181.625 C 246.234375 181.816406 246.203125 181.996094 246.175781 182.179688 L 237.839844 182.179688 C 237.8125 181.996094 237.78125 181.8125 237.78125 181.625 Z M 216.382812 210.730469 C 214.707031 210.730469 213.347656 209.375 213.347656 207.703125 C 213.347656 206.03125 214.707031 204.671875 216.382812 204.671875 C 218.058594 204.671875 219.414062 206.03125 219.414062 207.703125 C 219.414062 209.375 218.058594 210.730469 216.382812 210.730469 Z M 216.382812 200.347656 C 214.707031 200.347656 213.347656 198.992188 213.347656 197.320312 C 213.347656 195.648438 214.707031 194.289062 216.382812 194.289062 C 218.058594 194.289062 219.414062 195.648438 219.414062 197.320312 C 219.414062 198.992188 218.058594 200.347656 216.382812 200.347656 Z M 239.183594 228.359375 C 233.851562 223.039062 233.851562 214.410156 239.183594 209.089844 C 244.1875 204.09375 252.105469 203.789062 257.46875 208.167969 L 261.460938 204.183594 L 263.398438 206.121094 L 259.410156 210.105469 C 263.796875 215.460938 263.492188 223.367188 258.488281 228.359375 C 253.15625 233.683594 244.511719 233.683594 239.183594 228.359375 Z M 267.753906 271.371094 L 251.9375 271.371094 L 251.9375 243.035156 L 267.753906 243.035156 Z M 267.753906 271.371094 " fill-opacity="1" fill-rule="nonzero"/></g><path fill="#000000" d="M 242.015625 211.917969 C 238.25 215.679688 238.25 221.773438 242.015625 225.53125 C 245.78125 229.289062 251.886719 229.289062 255.652344 225.53125 C 259.417969 221.773438 259.417969 215.679688 255.652344 211.917969 C 251.886719 208.160156 245.78125 208.160156 242.015625 211.917969 Z M 250.570312 220.457031 C 249.613281 221.414062 248.058594 221.414062 247.097656 220.457031 C 246.136719 219.5 246.136719 217.949219 247.097656 216.992188 C 248.058594 216.035156 249.613281 216.035156 250.570312 216.992188 C 251.53125 217.949219 251.53125 219.5 250.570312 220.457031 Z M 250.570312 220.457031 " fill-opacity="1" fill-rule="nonzero"/><path fill="#000000" d="M 195.507812 195.300781 L 204.175781 195.300781 L 204.175781 230.558594 L 195.507812 230.558594 Z M 195.507812 195.300781 " fill-opacity="1" fill-rule="nonzero"/><path fill="#000000" d="M 253.996094 245.484375 L 265.695312 245.484375 L 265.695312 252.984375 L 253.996094 252.984375 Z M 253.996094 245.484375 " fill-opacity="1" fill-rule="nonzero"/><path fill="#000000" d="M 207.796875 133.414062 C 210.140625 130.910156 205.9375 123.195312 198.414062 116.1875 C 198.15625 115.945312 197.894531 115.71875 197.636719 115.488281 C 197.4375 110.546875 195.371094 105.679688 191.460938 102.039062 C 183.589844 94.699219 171.246094 95.125 163.898438 102.984375 C 156.546875 110.84375 156.976562 123.164062 164.847656 130.5 C 172.070312 137.230469 183.035156 137.410156 190.476562 131.335938 C 189.253906 130.074219 188.03125 128.675781 186.84375 127.164062 C 180.601562 119.230469 177.644531 111.132812 180.09375 108.839844 C 179.011719 111.925781 183.089844 118.875 189.9375 125.253906 C 195.101562 130.066406 200.492188 133.296875 204.121094 134.039062 C 205.777344 134.378906 207.066406 134.199219 207.796875 133.414062 Z M 207.796875 133.414062 " fill-opacity="1" fill-rule="nonzero"/><path fill="#000000" d="M 252.65625 165.667969 C 252.671875 165.664062 254.59375 165.519531 255.953125 166.6875 C 256.835938 167.449219 257.320312 168.621094 257.402344 170.183594 C 257.425781 170.644531 257.808594 171.003906 258.269531 171.003906 C 258.285156 171.003906 258.296875 171.003906 258.3125 171.003906 C 258.792969 170.976562 259.160156 170.570312 259.136719 170.09375 C 259.027344 168.042969 258.339844 166.457031 257.085938 165.378906 C 255.152344 163.714844 252.597656 163.9375 252.488281 163.945312 C 252.011719 163.992188 251.664062 164.414062 251.710938 164.890625 C 251.753906 165.363281 252.183594 165.710938 252.65625 165.667969 Z M 252.65625 165.667969 " fill-opacity="1" fill-rule="nonzero"/><path fill="#000000" d="M 262.082031 170.382812 C 262.085938 170.382812 262.089844 170.382812 262.09375 170.382812 C 262.574219 170.375 262.957031 169.984375 262.949219 169.503906 C 262.90625 166.445312 261.988281 164.046875 260.214844 162.375 C 257.519531 159.828125 253.851562 159.949219 253.699219 159.957031 C 253.222656 159.980469 252.851562 160.382812 252.871094 160.859375 C 252.890625 161.335938 253.316406 161.699219 253.773438 161.6875 C 253.804688 161.6875 256.855469 161.582031 259.027344 163.632812 C 260.445312 164.972656 261.179688 166.953125 261.214844 169.527344 C 261.222656 170 261.609375 170.382812 262.082031 170.382812 Z M 262.082031 170.382812 " fill-opacity="1" fill-rule="nonzero"/><path fill="#000000" d="M 225.507812 170.273438 C 225.511719 170.273438 225.519531 170.273438 225.527344 170.273438 C 225.992188 170.273438 226.378906 169.898438 226.394531 169.429688 C 226.394531 169.410156 226.460938 167.480469 227.796875 166.261719 C 228.652344 165.480469 229.878906 165.140625 231.429688 165.234375 C 231.898438 165.265625 232.316406 164.902344 232.347656 164.425781 C 232.378906 163.949219 232.015625 163.535156 231.535156 163.507812 C 229.488281 163.378906 227.828125 163.878906 226.609375 165 C 224.730469 166.726562 224.660156 169.285156 224.660156 169.390625 C 224.652344 169.871094 225.027344 170.261719 225.507812 170.273438 Z M 225.507812 170.273438 " fill-opacity="1" fill-rule="nonzero"/><path fill="#000000" d="M 221.632812 168.660156 C 221.652344 168.664062 221.675781 168.664062 221.695312 168.664062 C 222.144531 168.664062 222.527344 168.316406 222.558594 167.859375 C 222.5625 167.828125 222.808594 164.792969 225.09375 162.875 C 226.589844 161.621094 228.640625 161.117188 231.214844 161.375 C 231.699219 161.429688 232.113281 161.078125 232.164062 160.601562 C 232.210938 160.128906 231.863281 159.703125 231.386719 159.65625 C 228.347656 159.347656 225.847656 159.984375 223.980469 161.550781 C 221.136719 163.933594 220.84375 167.582031 220.832031 167.734375 C 220.796875 168.210938 221.15625 168.625 221.632812 168.660156 Z M 221.632812 168.660156 " fill-opacity="1" fill-rule="nonzero"/><path fill="#000000" d="M 118.871094 162.738281 C 118.320312 160.210938 118.890625 157.574219 120.441406 155.503906 L 135.753906 135.027344 C 137.429688 132.78125 140.105469 131.445312 142.910156 131.445312 C 144.847656 131.445312 146.691406 132.058594 148.246094 133.214844 C 150.160156 134.640625 151.398438 136.71875 151.742188 139.078125 C 152.085938 141.433594 151.488281 143.78125 150.0625 145.6875 L 140.90625 157.929688 L 148.097656 161.847656 C 149.394531 159.871094 150.679688 157.972656 151.914062 156.160156 L 154.496094 164.351562 C 154.636719 164.800781 154.828125 165.230469 155.054688 165.632812 L 156.039062 166.171875 L 189.792969 166.171875 C 189.726562 166.140625 189.660156 166.105469 189.589844 166.078125 L 166.734375 157.054688 L 159.675781 134.636719 C 159.089844 132.257812 157.875 130.183594 155.9375 128.734375 C 149.828125 124.175781 138.382812 123.722656 129.441406 133.714844 C 119.59375 144.847656 114.0625 153.496094 109.457031 166.171875 L 120.441406 166.171875 C 119.6875 165.164062 119.148438 163.996094 118.871094 162.738281 Z M 118.871094 162.738281 " fill-opacity="1" fill-rule="nonzero"/><g clip-path="url(#0f68ed6c42)"><path fill="#000000" d="M 162.082031 210.835938 L 135.003906 186.753906 C 135.527344 185.222656 136.121094 183.695312 136.761719 182.179688 L 105.679688 182.179688 C 105.738281 183.707031 105.957031 185.097656 106.324219 186.351562 C 106.578125 188.96875 107.769531 191.5 109.886719 193.386719 L 142.277344 222.195312 L 127.292969 265.570312 C 125.34375 271.214844 128.347656 277.375 134.003906 279.320312 C 135.175781 279.722656 136.367188 279.914062 137.539062 279.914062 C 142.03125 279.914062 146.230469 277.101562 147.78125 272.621094 L 165.113281 222.4375 C 166.539062 218.3125 165.34375 213.738281 162.082031 210.835938 Z M 162.082031 210.835938 " fill-opacity="1" fill-rule="nonzero"/></g><path fill="#000000" d="M 166.828125 172.046875 C 169.703125 173.609375 171.359375 176.53125 171.464844 179.582031 L 212.394531 179.582031 L 212.394531 168.765625 L 160.804688 168.765625 Z M 166.828125 172.046875 " fill-opacity="1" fill-rule="nonzero"/><g clip-path="url(#d9ecb2117e)"><path fill="#000000" d="M 143.378906 179.582031 L 123.519531 168.765625 L 88.140625 168.765625 L 88.140625 179.582031 Z M 143.378906 179.582031 " fill-opacity="1" fill-rule="nonzero"/></g><path fill="#000000" d="M 159.234375 185.945312 C 160.289062 186.523438 161.425781 186.792969 162.546875 186.792969 C 165.003906 186.792969 167.382812 185.488281 168.640625 183.1875 C 170.472656 179.828125 169.234375 175.625 165.875 173.792969 L 137.933594 158.578125 L 148.464844 144.5 C 150.753906 141.433594 150.125 137.097656 147.054688 134.8125 C 143.984375 132.523438 139.640625 133.152344 137.347656 136.21875 L 122.039062 156.695312 C 120.835938 158.300781 120.390625 160.351562 120.820312 162.3125 C 121.25 164.273438 122.507812 165.949219 124.273438 166.910156 Z M 159.234375 185.945312 " fill-opacity="1" fill-rule="nonzero"/><g clip-path="url(#d7ec932944)"><path fill="#000000" d="M 187.429688 325.601562 C 118.027344 325.601562 61.804688 268.996094 61.804688 199.976562 C 61.804688 130.960938 118.027344 74.351562 187.429688 74.351562 C 256.835938 74.351562 313.054688 130.574219 313.054688 199.976562 C 313.054688 269.382812 256.445312 325.601562 187.429688 325.601562 Z M 187.429688 82.109375 C 122.292969 82.109375 69.558594 134.839844 69.558594 199.976562 C 69.558594 265.117188 122.292969 317.847656 187.429688 317.847656 C 252.570312 317.847656 305.300781 265.117188 305.300781 199.976562 C 305.300781 134.839844 252.183594 82.109375 187.429688 82.109375 Z M 187.429688 82.109375 " fill-opacity="1" fill-rule="nonzero"/></g></svg>